<svg version="1.1" id="Layer_1" xmlns="http://www.w3.org/2000/svg" xmlns:xlink="http://www.w3.org/1999/xlink" x="0px" y="0px" viewBox="0 0 300.2 65.8" style="enable-background:new 0 0 300.2 65.8;" xml:space="preserve">
 <g>
  <path d="M14.9,0H0l21.3,48.3c0.2,0.4,0.7,0.4,0.8,0l7.1-16.6L14.9,0z">
  </path>
  <path d="M60.4,0c0,0-22.9,52.4-25.9,57.2c-3.6,5.6-5.9,7.8-10.3,8.4c0,0-0.1,0-0.1,0.1c0,0,0,0.1,0.1,0.1h13.7
		c5.9,0,10.2-4.9,12.6-9.3C53.1,51.5,75.5,0,75.5,0H60.4z">
  </path>
  <path d="M120.1,42c0,0.1-0.1,0.1-0.2,0l-11.3-24.8h-6.4c0,0,11.7,26.3,12.9,28.3c1.1,1.9,2.5,3.5,4.9,3.5s3.8-1.6,4.9-3.5
		c1.2-2,12.9-28.3,12.9-28.3h-6.4L120.1,42z">
  </path>
  <path d="M154.7,44.2c-6.2,0-10.2-4-10.2-11.3s4-11.3,10.2-11.3c6.1,0,10.2,4,10.2,11.3S160.8,44.2,154.7,44.2 M154.7,16.5
		c-9.7,0-15.9,6.3-15.9,16.4c0,10.2,6.2,16.5,15.9,16.5c9.6,0,15.9-6.3,15.9-16.5C170.5,22.7,164.3,16.5,154.7,16.5">
  </path>
  <polygon points="203.2,17.2 203.2,48.6 196.6,48.6 181.4,25.6 181.4,48.6 175.8,48.6 175.8,17.2 182.4,17.2 197.6,40.3 197.6,17.2 
			">
  </polygon>
  <path d="M218.1,35.7l5.5-12.8c0-0.1,0.1-0.1,0.2,0l5.5,12.8H218.1z M223.7,16.8c-2.3,0-3.7,1.7-4.6,3.5
		c-0.9,1.8-12.3,28.3-12.3,28.3h5.8l3.3-7.6h15.6l3.3,7.6h5.8c0,0-11.3-26.5-12.3-28.3C227.3,18.6,225.9,16.8,223.7,16.8L223.7,16.8
		z">
  </path>
  <path d="M256.3,36.5h10c0,4.9-4.6,7.7-9.4,7.7c-6.1,0-10-4-10-11.3c0-7.8,3.7-11.3,10.4-11.3c4.2,0,7.7,1.7,8.4,5.7h5.8
		c-1-6.9-7.4-10.8-14.5-10.8c-9.5,0-15.6,6.3-15.6,16.4s6.1,16.3,15.6,16.3c4,0,8-2.1,9.5-4.4l0,3.8h5.3v-9.7v-7.2h-15.3V36.5z">
  </path>
  <polygon points="300.2,22.4 300.2,17.2 277.6,17.2 277.6,48.6 300.2,48.6 300.2,43.4 283.2,43.4 283.2,35.1 298.9,35.1 298.9,29.8 
		283.2,29.8 283.2,22.4 	">
  </polygon>
 </g>
</svg>