<svg width="189" height="54" viewBox="0 0 189 54" fill="none" xmlns="http://www.w3.org/2000/svg">
<g clip-path="url(#clip0_6100_4415)">
<path d="M18.1125 53.9042C15.9075 53.9042 13.86 53.2989 12.222 52.1202C9.76497 50.368 8.69397 48.2016 8.69397 45.0795C8.69397 40.0777 13.86 33.0688 25.3575 33.0688C27.783 33.0688 31.2795 34.5343 31.311 34.5662H31.3425H31.374C31.4055 34.5662 36.2565 35.9361 36.2565 35.9361L37.8 35.4901C37.8 35.4901 38.052 36.7007 37.7685 37.2742C36.6345 39.5998 32.445 47.4688 26.7435 51.2281C26.1135 51.6423 25.4835 51.9927 24.8535 52.2795C22.68 53.2989 20.5695 53.8405 18.522 53.9042C18.396 53.9042 18.2385 53.9042 18.1125 53.9042ZM24.5385 35.6812C20.1915 35.6812 14.3325 37.4016 12.033 42.3078C11.1825 44.0919 11.1195 46.0352 11.8755 47.5963C13.0095 50.0175 14.994 51.1644 18.0495 51.1644C18.207 51.1644 18.3645 51.1644 18.522 51.1644C20.16 51.1007 21.924 50.6547 23.751 49.7945C29.2635 47.214 33.5475 39.9184 34.713 37.3379L34.776 37.1786L34.587 37.1467C34.2405 37.083 33.831 36.9874 33.3585 36.8919C31.1535 36.3821 27.8775 35.6812 24.5385 35.6812Z" fill="#FFC600"/>
<path d="M12.978 42.5309C8.44197 41.607 4.81947 39.5999 2.55147 36.7327C0.472469 34.0884 -0.346531 30.9344 0.283469 27.8442C1.10247 23.83 4.78797 19.0513 12.537 18.8601C12.6945 18.8601 12.852 18.8601 13.0095 18.8601C14.4585 18.8601 16.0335 19.0194 17.6085 19.338C26.397 21.1539 34.965 30.7752 37.3905 33.7061C37.8315 34.2159 37.989 34.8849 37.863 35.5539C37.737 36.1274 37.422 36.6371 36.918 36.9557C36.855 36.9875 37.107 37.2743 37.044 37.338C34.524 38.6442 25.326 42.8813 17.325 42.8813C15.813 42.9132 14.1435 42.7539 12.978 42.5309ZM13.104 21.6318C12.978 21.6318 12.8205 21.6318 12.6945 21.6318C10.584 21.6955 8.69397 22.1415 7.11897 23.0017C6.89847 23.1291 6.64647 23.2566 6.42597 23.4159C4.56747 24.6265 3.37047 26.3468 2.96097 28.3858C2.51997 30.6477 3.14997 33.1008 4.75647 35.076C6.61497 37.3698 9.63897 39.0265 13.545 39.8229C14.553 40.0141 16.7265 40.1415 17.3565 40.1415C24.0975 40.1415 32.067 36.7645 35.028 35.299L34.8705 34.9486L34.7445 34.7893C31.878 31.4442 24.444 23.5433 17.073 22.0459C15.7185 21.7592 14.364 21.6318 13.104 21.6318Z" fill="#FF7500"/>
<path d="M35.1225 37.3061C30.492 36.3822 21.6405 34.1521 14.4585 29.4052C7.43401 24.7857 3.90601 19.1149 3.90601 12.5202C3.90601 5.79811 9.76501 0.095459 16.695 0.095459C24.2235 0.095459 29.9565 4.26891 33.768 12.4884C37.737 21.0901 38.178 31.03 38.178 34.9167C38.178 35.8087 38.178 36.4459 37.737 36.9875C37.422 37.3698 36.5715 37.4335 36.2565 37.4016C35.973 37.4335 35.532 37.4016 35.1225 37.3061ZM16.695 2.93086C11.2455 2.93086 6.96151 7.04059 6.96151 12.4884C6.96151 27.1114 28.791 33.1963 35.469 34.7255L35.658 34.7574V34.5663C35.658 22.3645 30.492 2.93086 16.695 2.93086Z" fill="#FC1822"/>
<path d="M43.1234 43.9007V43.7732C43.1234 43.0405 43.4069 42.467 44.0369 41.7661L62.4644 19.8794H45.4229C44.4149 19.8794 43.5644 19.083 43.5644 18.0635C43.5644 17.044 44.4149 16.1838 45.4229 16.1838H66.2129C67.4099 16.1838 68.2919 16.9803 68.2919 17.9361V18.0635C68.2919 18.7962 68.0084 19.3697 67.3784 20.0706L48.9509 41.9573H66.7169C67.7249 41.9573 68.5754 42.8175 68.5754 43.7732C68.5754 44.7927 67.7249 45.6529 66.7169 45.6529H45.1709C44.0684 45.6847 43.1234 44.8883 43.1234 43.9007Z" fill="#63666A"/>
<path d="M73.7415 18.1273C73.7415 16.9167 74.6865 15.8972 75.8835 15.8972C77.112 15.8972 78.0885 16.853 78.0885 18.1273V43.7415C78.0885 44.9839 77.175 45.9716 75.9465 45.9716C74.718 45.9716 73.7415 45.0158 73.7415 43.7415V18.1273Z" fill="#63666A"/>
<path d="M85.3334 18.1272C85.3334 16.9165 86.2784 15.8971 87.4754 15.8971C88.7039 15.8971 89.6804 16.8528 89.6804 18.1272V21.313C91.6019 18.1272 94.6574 15.5466 99.6659 15.5466C106.722 15.5466 110.817 20.3254 110.817 27.3342V43.7095C110.817 44.9519 109.872 45.9395 108.675 45.9395C107.446 45.9395 106.47 44.9838 106.47 43.7095V28.4174C106.47 22.9378 103.54 19.5289 98.4059 19.5289C93.3974 19.5289 89.6804 23.2245 89.6804 28.7679V43.7095C89.6804 44.9519 88.7669 45.9395 87.5384 45.9395C86.3099 45.9395 85.3334 44.9838 85.3334 43.7095V18.1272Z" fill="#63666A"/>
<path d="M117.274 18.1272C117.274 16.9165 118.219 15.8971 119.416 15.8971C120.645 15.8971 121.621 16.8528 121.621 18.1272V21.313C123.543 18.1272 126.598 15.5466 131.607 15.5466C138.663 15.5466 142.758 20.3254 142.758 27.3342V43.7095C142.758 44.9519 141.813 45.9395 140.616 45.9395C139.387 45.9395 138.411 44.9838 138.411 43.7095V28.4174C138.411 22.9378 135.481 19.5289 130.347 19.5289C125.338 19.5289 121.621 23.2245 121.621 28.7679V43.7095C121.621 44.9519 120.708 45.9395 119.479 45.9395C118.251 45.9395 117.274 44.9838 117.274 43.7095V18.1272Z" fill="#63666A"/>
<path d="M149.562 18.1273C149.562 16.9167 150.507 15.8972 151.704 15.8972C152.932 15.8972 153.909 16.853 153.909 18.1273V43.7415C153.909 44.9839 152.995 45.9716 151.767 45.9716C150.538 45.9716 149.562 45.0158 149.562 43.7415V18.1273Z" fill="#63666A"/>
<path d="M188.937 43.7415C188.937 44.984 187.992 45.9716 186.795 45.9716C185.566 45.9716 184.59 45.0159 184.59 43.7415V39.7592C182.227 43.2955 178.794 46.3221 173.439 46.3221C166.446 46.3221 159.516 40.7469 159.516 31.03V30.9026C159.516 21.2814 166.446 15.5787 173.439 15.5787C178.857 15.5787 182.353 18.5415 184.59 21.8548V17.4584C184.59 16.2159 185.503 15.2283 186.732 15.2283C187.96 15.2283 188.937 16.184 188.937 17.4584V43.7415ZM163.957 30.8389V30.9663C163.957 37.9115 168.745 42.3716 174.226 42.3716C179.644 42.3716 184.779 37.7522 184.779 30.9663V30.8389C184.779 24.0531 179.644 19.4973 174.226 19.4973C168.556 19.4973 163.957 23.7345 163.957 30.8389Z" fill="#63666A"/>
<path d="M73.3319 7.67771C73.3319 6.24409 74.4659 5.35205 75.8834 5.35205C77.3639 5.35205 78.4664 6.27594 78.4664 7.67771V8.41046C78.4664 9.78037 77.3324 10.7361 75.8834 10.7361C74.4659 10.7361 73.3319 9.78037 73.3319 8.41046V7.67771Z" fill="#63666A"/>
<path d="M149.184 7.67771C149.184 6.24409 150.318 5.35205 151.735 5.35205C153.216 5.35205 154.318 6.27594 154.318 7.67771V8.41046C154.318 9.78037 153.184 10.7361 151.735 10.7361C150.318 10.7361 149.184 9.78037 149.184 8.41046V7.67771Z" fill="#63666A"/>
</g>
<defs>
<clipPath id="clip0_6100_4415">
<rect width="189" height="54" fill="white"/>
</clipPath>
</defs>
</svg>
